HIERARCHY
ROOT Hips
{
  OFFSET 13.6774 106.653 -34.4427
  CHANNELS 6 Xposition Yposition Zposition Zrotation Xrotation Yrotation
  JOINT ToSpine
  {
    OFFSET -2.69724 7.43032 -0.144315
    CHANNELS 3 Zrotation Xrotation Yrotation
    JOINT Spine
    {
      OFFSET -0.0310711 10.7595 1.96963
      CHANNELS 3 Zrotation Xrotation Yrotation
      JOINT Spine1
      {
        OFFSET 19.9056 3.91189 0.764692
        CHANNELS 3 Zrotation Xrotation Yrotation
        JOINT Neck
        {
          OFFSET 25.9749 7.03908 -0.130764
          CHANNELS 3 Zrotation Xrotation Yrotation
          JOINT Head
          {
            OFFSET 9.52751 0.295786 -0.907742
            CHANNELS 3 Zrotation Xrotation Yrotation
            End Site
            {
              OFFSET 16.4037 0.713936 2.7358
            }
          }
        }
        JOINT LeftShoulder
        {
          OFFSET 17.7449 4.33886 11.7777
          CHANNELS 3 Zrotation Xrotation Yrotation
          JOINT LeftArm
          {
            OFFSET 0.911315 1.27913 9.80584
            CHANNELS 3 Zrotation Xrotation Yrotation
            JOINT LeftForeArm
            {
              OFFSET 28.6126 1.18197 -3.53199
              CHANNELS 3 Zrotation Xrotation Yrotation
              JOINT LeftHand
              {
                OFFSET 27.5088 0.0218783 0.327423
                CHANNELS 3 Zrotation Xrotation Yrotation
                End Site
                {
                  OFFSET 18.6038 -0.000155887 0.382096
                }
              }
            }
          }
        }
        JOINT RightShoulder
        {
          OFFSET 17.1009 2.89543 -12.2328
          CHANNELS 3 Zrotation Xrotation Yrotation
          JOINT RightArm
          {
            OFFSET 1.4228 0.178766 -10.211
            CHANNELS 3 Zrotation Xrotation Yrotation
            JOINT RightForeArm
            {
              OFFSET 28.733 1.87905 2.64907
              CHANNELS 3 Zrotation Xrotation Yrotation
              JOINT RightHand
              {
                OFFSET 27.4588 0.290562 -0.101845
                CHANNELS 3 Zrotation Xrotation Yrotation
                End Site
                {
                  OFFSET 17.8396 -0.255518 -0.000602873
                }
              }
            }
          }
        }
      }
    }
  }
  JOINT LeftUpLeg
  {
    OFFSET -5.61296 -2.22332 -10.2353
    CHANNELS 3 Zrotation Xrotation Yrotation
    JOINT LeftLeg
    {
      OFFSET 2.56703 -44.7417 -7.93097
      CHANNELS 3 Zrotation Xrotation Yrotation
      JOINT LeftFoot
      {
        OFFSET 3.16933 -46.5642 -3.96578
        CHANNELS 3 Zrotation Xrotation Yrotation
        JOINT LeftToeBase
        {
          OFFSET 0.346054 -6.02161 12.8035
          CHANNELS 3 Zrotation Xrotation Yrotation
          End Site
          {
            OFFSET 0.134235 -1.35082 5.13018
          }
        }
      }
    }
  }
  JOINT RightUpLeg
  {
    OFFSET -5.7928 -1.72406 10.6446
    CHANNELS 3 Zrotation Xrotation Yrotation
    JOINT RightLeg
    {
      OFFSET -2.57161 -44.7178 -7.85259
      CHANNELS 3 Zrotation Xrotation Yrotation
      JOINT RightFoot
      {
        OFFSET -3.10148 -46.5936 -4.03391
        CHANNELS 3 Zrotation Xrotation Yrotation
        JOINT RightToeBase
        {
          OFFSET -0.0828122 -6.13587 12.8035
          CHANNELS 3 Zrotation Xrotation Yrotation
          End Site
          {
            OFFSET -0.131328 -1.35082 5.13018
          }
        }
      }
    }
  }
}
MOTION
Frames: 12
Frame Time: 0.03333333333333333
0.0000 93.1000 0.0000 77.0099 -1.7490 1.9567 -70.5740 -0.4502 87.2808 78.6766 69.0899 4.3297 2.3579 17.8059 3.4181 -115.7461 30.5787 159.3580 -177.9804 74.4410 -149.2891 -1.1094 -19.1108 -31.5893 -51.5859 25.3812 -139.3853 31.9519 -5.7424 -97.9970 -0.2777 -0.2470 0.0910 -3.2612 6.0190 51.2342 -116.7584 -6.0146 102.8764 21.1590 -15.8931 55.4568 -0.1255 0.4362 -0.3113 -57.9268 16.7170 96.0945 -2.9585 48.1304 -2.8077 0.3571 -23.0218 -1.8436 2.0554 -8.3705 11.9374 -36.5963 -11.7296 71.6133 1.6652 43.7673 0.0903 -21.6671 4.6719 2.5970 1.5304 -22.4940 -4.9417 
0.0000 93.1000 0.0000 76.5623 -1.2256 2.1430 -70.5234 0.2060 87.3945 80.7906 68.1884 2.0755 3.1699 17.0378 2.6281 -114.6039 30.2919 158.1302 -175.9754 74.9478 -149.4442 -0.9116 -20.1029 -31.9894 -53.1341 27.2374 -140.2759 32.8333 -5.0918 -97.0594 -0.0141 -0.2007 0.0964 -2.8208 6.1883 51.7480 -116.9116 -4.7501 107.1849 18.0493 -16.3041 49.8520 0.2482 0.3832 0.0014 -57.8940 18.0904 97.8578 -4.1554 47.8000 -3.9284 0.4901 -20.7342 -2.2092 3.0946 -10.1981 12.1122 -36.5001 -13.0101 71.2184 2.1730 44.5023 4.0655 -19.8052 4.0789 3.0424 2.4837 -20.0588 -10.5676 
0.0000 93.1000 0.0000 76.5400 -1.2559 2.1278 -70.5916 0.2513 87.5622 79.8666 68.1399 1.6953 3.1483 16.9294 3.2780 -115.0353 30.3893 157.3841 -175.7720 75.1173 -148.8386 -0.8590 -20.7051 -32.2113 -53.8333 27.1274 -140.2660 32.6813 -5.2522 -97.2035 -0.0945 -0.2972 -0.1833 -3.0150 6.7566 52.4296 -116.5395 -3.3521 109.4426 12.5561 -12.8785 47.6074 -0.0424 0.4570 -0.2162 -58.1017 18.6611 99.3150 -3.9776 46.1776 -4.8869 0.0126 -20.6793 -1.9977 2.5044 -9.6659 8.9571 -36.8771 -14.3088 69.2381 1.7980 44.3932 1.3889 -21.5380 2.8153 3.2961 1.9458 -20.8400 -4.6887 
0.0000 93.1000 0.0000 76.3448 -0.9180 0.8386 -70.6250 -0.0097 87.5851 80.5740 67.9324 1.7686 2.4439 17.1002 3.3977 -115.8276 30.7027 160.0340 -177.6727 75.0896 -146.2887 -0.9387 -20.4613 -31.9986 -53.9893 25.8983 -141.3613 32.3565 -4.7604 -96.8397 -0.2752 -0.3343 0.3977 -3.2975 7.3050 52.0160 -118.7879 -4.0406 111.3107 16.5173 -15.3826 48.8315 -0.4892 0.5203 -0.3740 -58.9935 18.3447 99.6951 -3.5665 44.1053 -4.8114 -1.0722 -21.5234 -1.4344 2.1163 -8.2848 7.8373 -36.4356 -14.1431 68.7625 1.4144 43.6628 3.2000 -20.6498 3.7762 2.4864 2.0308 -21.4614 -7.0082 
0.0000 93.1000 0.0000 75.4420 -0.3317 0.6732 -70.7199 0.2420 87.6739 81.0509 68.0313 2.1819 2.2226 17.0555 3.0575 -118.2059 31.3966 161.3231 -178.2037 74.9709 -146.8554 -0.6929 -19.3489 -30.8838 -54.6842 25.9295 -142.3056 31.7976 -4.7212 -97.2036 -0.1109 -0.2039 -0.0987 -2.9837 7.1194 53.0186 -119.9115 -3.8484 112.3260 17.7997 -15.2982 50.4802 -0.1610 0.3407 -0.0392 -58.6765 17.7749 99.2209 -3.1257 43.9446 -6.0921 -1.7936 -21.2651 -1.9722 2.5909 -9.4872 7.6508 -35.2319 -14.1520 69.6872 2.3493 44.6391 2.7867 -21.2923 3.0862 3.1563 1.8261 -21.6522 -8.3505 
0.0000 93.1000 0.0000 75.5706 -0.2013 0.4220 -70.7744 -0.1001 87.6769 80.8424 67.4242 2.1845 1.9570 16.7048 2.0106 -118.2354 30.3335 158.8157 -172.8400 75.0027 -150.8415 -0.9386 -19.3085 -29.0574 -54.7693 25.9542 -143.3192 30.0502 -4.4343 -97.2501 0.0700 -0.0388 -0.0645 -3.0908 7.0526 53.0185 -121.4723 -4.5290 112.9911 18.0482 -14.9785 50.7290 -0.0783 0.1301 -0.0554 -59.0030 16.7530 98.8019 -2.7252 42.8860 -5.7292 -2.4244 -21.2536 -1.9779 2.6812 -9.7412 8.5830 -35.3431 -14.0876 70.0308 1.2636 44.1223 2.8509 -21.4572 3.7414 3.1825 1.9474 -21.6867 -9.5803 
0.0000 93.1000 0.0000 75.0669 0.6749 0.8968 -70.7593 -0.1261 87.5733 81.9540 67.8408 1.0313 2.0766 16.8283 1.8636 -119.0105 30.5005 158.0441 -171.4637 75.2079 -153.7398 -0.9353 -18.7724 -27.7900 -54.9660 26.0829 -144.1343 31.5672 -3.3942 -96.2328 -0.1568 -0.0342 -0.1688 -3.1413 7.2354 52.2556 -122.0858 -6.0241 113.2040 17.8692 -14.8535 50.6550 -0.0715 0.1350 -0.0980 -59.1993 16.8278 99.0187 -2.5787 42.0060 -5.0618 -2.0695 -21.3110 -2.0595 2.6610 -9.8832 7.1075 -35.2678 -15.0996 69.7913 1.8296 44.1483 3.8081 -20.7019 3.2030 3.1913 1.9465 -22.0485 -7.2889 
0.0000 93.1000 0.0000 75.3354 0.7696 0.0633 -70.7687 0.2815 87.5909 82.0432 67.9180 1.8527 2.2469 16.9714 1.3759 -119.4701 31.4834 158.2678 -171.7056 75.3751 -153.5075 -0.6127 -19.1219 -27.9859 -54.8828 27.1019 -144.0225 31.4021 -4.0380 -96.0641 0.1177 -0.5004 -0.5158 -3.2179 7.3812 52.0115 -123.0954 -5.9911 113.4361 17.0012 -14.0340 51.6643 -0.1674 0.6505 -0.4069 -58.7284 17.0936 98.7592 -3.3533 41.9443 -4.6145 -2.7399 -22.0008 -1.9526 2.4787 -7.9457 4.2126 -36.3851 -15.4701 69.5194 2.0923 43.1370 3.0632 -20.6055 3.9647 3.4079 1.7466 -21.3941 -6.1561 
0.0000 93.1000 0.0000 75.4379 1.0855 1.2834 -70.8580 0.1758 87.6379 81.9608 68.0543 1.1776 2.1130 16.8204 1.8776 -121.2794 32.0078 158.7730 -172.7669 75.4182 -154.2395 -0.7485 -19.0654 -28.1258 -54.8935 26.6989 -143.9912 31.0622 -3.8703 -96.0747 -0.1792 -0.2813 -0.2186 -3.1558 7.1153 51.0061 -123.3873 -6.9857 113.2252 15.9111 -13.9438 51.9438 0.0279 0.4737 -0.2899 -58.8149 16.8204 98.5779 -3.7195 42.2124 -6.2005 -2.9624 -20.9041 -1.8796 2.8350 -9.2890 6.6811 -36.2437 -15.8046 69.1618 2.2835 42.6934 4.1927 -21.1101 3.8679 3.3142 1.6938 -21.5511 -5.6552 
0.0000 93.1000 0.0000 75.6055 0.7000 1.0475 -70.7892 0.4147 87.5767 82.0807 68.3854 1.0729 2.1655 17.2066 2.4212 -122.3472 32.0964 159.1066 -172.2132 76.0785 -156.0517 -0.6126 -19.0190 -28.1874 -54.9119 26.8735 -143.8904 31.1386 -3.8362 -96.0867 0.0822 -0.2491 -0.3036 -2.9348 7.2324 50.0276 -123.8960 -8.0902 113.3603 17.3614 -13.9535 52.6608 0.1661 0.4856 0.1670 -58.9820 16.6654 98.7033 -2.9066 42.0290 -7.0275 -3.5358 -20.6389 -1.9823 3.4028 -9.7094 6.9863 -36.4339 -15.8994 68.9644 2.4033 42.8085 4.2091 -20.9415 4.2115 3.6037 2.1538 -22.2751 -6.4188 
0.0000 93.1000 0.0000 76.3233 0.0896 0.9067 -70.7747 -0.0701 87.5431 80.9742 68.9630 1.6692 2.4358 18.1085 2.8437 -122.3367 32.5034 158.1036 -170.0365 76.2046 -157.1762 -0.8422 -19.6219 -28.6398 -54.8839 27.0805 -143.0910 30.9448 -3.6647 -96.2652 -0.1337 -0.3451 -0.0386 -3.3574 7.1925 49.1786 -123.7590 -8.8145 112.1331 18.0558 -13.8533 54.0316 -0.3231 0.5848 -0.4136 -59.8134 15.7729 98.8684 -2.5973 42.0684 -6.4377 -3.9286 -19.9741 -1.2699 4.0398 -10.7011 6.0230 -36.3064 -15.9172 68.5886 2.2677 42.8001 4.3786 -20.9476 3.7875 2.7781 1.8105 -21.8924 -5.7173 
0.0000 93.1000 0.0000 76.7060 -0.1782 -0.2320 -70.7724 0.3549 87.5415 81.1493 69.1654 1.9799 3.1469 18.0549 3.2341 -124.2782 33.2898 158.9939 -171.1333 76.3341 -154.9890 -0.5327 -20.0494 -29.0586 -55.7260 26.8563 -143.0386 30.9202 -3.7050 -96.2134 -0.0515 -0.4087 -0.3172 -3.0023 7.1147 48.1496 -124.1058 -9.0758 111.3534 17.7860 -13.8066 54.5926 0.0026 0.7061 -0.2174 -59.3230 15.4960 99.7434 -2.8339 43.0249 -4.9469 -3.7423 -19.5324 -1.5133 4.3422 -11.6596 4.4359 -36.4426 -16.0655 69.8135 1.9535 42.6727 4.7750 -20.6705 4.2884 3.1813 2.1323 -21.8032 -6.9941 
